<svg width="37" height="32" viewBox="0 0 37 32" fill="none" xmlns="http://www.w3.org/2000/svg">
<path d="M36.0176 12.1167C35.9068 11.8118 35.7053 11.5441 35.4375 11.3459C35.1696 11.1477 34.8471 11.0275 34.5088 11L24.5264 9.61669L20.0527 1.00003C19.909 0.718243 19.6847 0.480598 19.4055 0.314317C19.1262 0.148037 18.8033 0.059845 18.4737 0.059845C18.1441 0.059845 17.8212 0.148037 17.542 0.314317C17.2627 0.480598 17.0384 0.718243 16.8948 1.00003L12.4211 9.60003L2.43864 11C2.11394 11.0439 1.80868 11.1733 1.5575 11.3736C1.30631 11.574 1.11927 11.8372 1.01758 12.1334C0.924505 12.4228 0.916152 12.7309 0.993422 13.0245C1.07069 13.3181 1.23067 13.5862 1.45618 13.8L8.70179 20.4667L6.94741 29.9334C6.88478 30.2458 6.91757 30.5688 7.04192 30.8641C7.16627 31.1594 7.37698 31.4148 7.64916 31.6C7.91446 31.7802 8.22736 31.8866 8.55275 31.9072C8.87815 31.9278 9.20315 31.8618 9.49127 31.7167L18.4737 27.2667L27.4211 31.7334C27.6673 31.8653 27.9454 31.9342 28.2281 31.9334C28.5997 31.9346 28.9622 31.8237 29.2632 31.6167C29.5354 31.4315 29.7461 31.1761 29.8704 30.8808C29.9948 30.5855 30.0276 30.2625 29.9649 29.95L28.2106 20.4834L35.4562 13.8167C35.7095 13.6128 35.8967 13.3449 35.9961 13.0439C36.0954 12.743 36.1029 12.4215 36.0176 12.1167ZM25.2281 18.7834C25.0224 18.9724 24.8684 19.2064 24.7797 19.465C24.6911 19.7235 24.6703 19.9988 24.7193 20.2667L25.9825 27.25L19.386 23.9167C19.1322 23.7883 18.849 23.7211 18.5614 23.7211C18.2739 23.7211 17.9907 23.7883 17.7369 23.9167L11.1404 27.25L12.4035 20.2667C12.4526 19.9988 12.4318 19.7235 12.3431 19.465C12.2545 19.2064 12.1005 18.9724 11.8948 18.7834L6.63162 13.7834L14.0176 12.7667C14.3018 12.7291 14.572 12.6259 14.8044 12.4661C15.0369 12.3063 15.2245 12.0948 15.3509 11.85L18.4737 5.50003L21.772 11.8667C21.8984 12.1114 22.086 12.323 22.3185 12.4828C22.5509 12.6426 22.8211 12.7458 23.1053 12.7834L30.4913 13.8L25.2281 18.7834Z" fill="#747474"/>
</svg>
