<svg width="43" height="40" viewBox="0 0 43 40" fill="none" xmlns="http://www.w3.org/2000/svg">
<path d="M24.9825 15H17.965C17.4997 15 17.0534 15.1756 16.7244 15.4881C16.3954 15.8007 16.2106 16.2246 16.2106 16.6666V23.3333C16.2106 23.7753 16.3954 24.1993 16.7244 24.5118C17.0534 24.8244 17.4997 25 17.965 25H24.9825C25.4478 25 25.894 24.8244 26.223 24.5118C26.5521 24.1993 26.7369 23.7753 26.7369 23.3333V16.6666C26.7369 16.2246 26.5521 15.8007 26.223 15.4881C25.894 15.1756 25.4478 15 24.9825 15ZM23.2281 21.6666H19.7193V18.3333H23.2281V21.6666ZM37.2632 21.6666C37.7285 21.6666 38.1747 21.4911 38.5037 21.1785C38.8328 20.8659 39.0176 20.442 39.0176 20C39.0176 19.558 38.8328 19.134 38.5037 18.8215C38.1747 18.5089 37.7285 18.3333 37.2632 18.3333H33.7544V15H37.2632C37.7285 15 38.1747 14.8244 38.5037 14.5118C38.8328 14.1993 39.0176 13.7753 39.0176 13.3333C39.0176 12.8913 38.8328 12.4674 38.5037 12.1548C38.1747 11.8422 37.7285 11.6666 37.2632 11.6666H33.4386C33.1767 10.9677 32.7542 10.3328 32.202 9.80815C31.6497 9.28349 30.9814 8.88218 30.2457 8.63331V4.99998C30.2457 4.55795 30.0608 4.13403 29.7318 3.82147C29.4028 3.50891 28.9566 3.33331 28.4913 3.33331C28.026 3.33331 27.5797 3.50891 27.2507 3.82147C26.9217 4.13403 26.7369 4.55795 26.7369 4.99998V8.33331H23.2281V4.99998C23.2281 4.55795 23.0433 4.13403 22.7143 3.82147C22.3853 3.50891 21.939 3.33331 21.4737 3.33331C21.0084 3.33331 20.5622 3.50891 20.2332 3.82147C19.9042 4.13403 19.7193 4.55795 19.7193 4.99998V8.33331H16.2106V4.99998C16.2106 4.55795 16.0257 4.13403 15.6967 3.82147C15.3677 3.50891 14.9215 3.33331 14.4562 3.33331C13.9909 3.33331 13.5447 3.50891 13.2156 3.82147C12.8866 4.13403 12.7018 4.55795 12.7018 4.99998V8.63331C11.966 8.88218 11.2978 9.28349 10.7455 9.80815C10.1932 10.3328 9.77078 10.9677 9.50882 11.6666H5.68426C5.21896 11.6666 4.77273 11.8422 4.44372 12.1548C4.11471 12.4674 3.92987 12.8913 3.92987 13.3333C3.92987 13.7753 4.11471 14.1993 4.44372 14.5118C4.77273 14.8244 5.21896 15 5.68426 15H9.19303V18.3333H5.68426C5.21896 18.3333 4.77273 18.5089 4.44372 18.8215C4.11471 19.134 3.92987 19.558 3.92987 20C3.92987 20.442 4.11471 20.8659 4.44372 21.1785C4.77273 21.4911 5.21896 21.6666 5.68426 21.6666H9.19303V25H5.68426C5.21896 25 4.77273 25.1756 4.44372 25.4881C4.11471 25.8007 3.92987 26.2246 3.92987 26.6666C3.92987 27.1087 4.11471 27.5326 4.44372 27.8452C4.77273 28.1577 5.21896 28.3333 5.68426 28.3333H9.50882C9.77078 29.0323 10.1932 29.6672 10.7455 30.1918C11.2978 30.7165 11.966 31.1178 12.7018 31.3666V35C12.7018 35.442 12.8866 35.8659 13.2156 36.1785C13.5447 36.4911 13.9909 36.6666 14.4562 36.6666C14.9215 36.6666 15.3677 36.4911 15.6967 36.1785C16.0257 35.8659 16.2106 35.442 16.2106 35V31.6666H19.7193V35C19.7193 35.442 19.9042 35.8659 20.2332 36.1785C20.5622 36.4911 21.0084 36.6666 21.4737 36.6666C21.939 36.6666 22.3853 36.4911 22.7143 36.1785C23.0433 35.8659 23.2281 35.442 23.2281 35V31.6666H26.7369V35C26.7369 35.442 26.9217 35.8659 27.2507 36.1785C27.5797 36.4911 28.026 36.6666 28.4913 36.6666C28.9566 36.6666 29.4028 36.4911 29.7318 36.1785C30.0608 35.8659 30.2457 35.442 30.2457 35V31.3666C30.9814 31.1178 31.6497 30.7165 32.202 30.1918C32.7542 29.6672 33.1767 29.0323 33.4386 28.3333H37.2632C37.7285 28.3333 38.1747 28.1577 38.5037 27.8452C38.8328 27.5326 39.0176 27.1087 39.0176 26.6666C39.0176 26.2246 38.8328 25.8007 38.5037 25.4881C38.1747 25.1756 37.7285 25 37.2632 25H33.7544V21.6666H37.2632ZM30.2457 26.6666C30.2457 27.1087 30.0608 27.5326 29.7318 27.8452C29.4028 28.1577 28.9566 28.3333 28.4913 28.3333H14.4562C13.9909 28.3333 13.5447 28.1577 13.2156 27.8452C12.8866 27.5326 12.7018 27.1087 12.7018 26.6666V13.3333C12.7018 12.8913 12.8866 12.4674 13.2156 12.1548C13.5447 11.8422 13.9909 11.6666 14.4562 11.6666H28.4913C28.9566 11.6666 29.4028 11.8422 29.7318 12.1548C30.0608 12.4674 30.2457 12.8913 30.2457 13.3333V26.6666Z" fill="#747474"/>
</svg>
