<svg width="41" height="39" viewBox="0 0 41 39" fill="none" xmlns="http://www.w3.org/2000/svg">
<path d="M38.1044 11.1904L28.7544 2.20632C28.5986 2.0592 28.4139 1.94281 28.2109 1.86382C28.0078 1.78483 27.7904 1.74479 27.571 1.746C27.1338 1.74775 26.7148 1.91307 26.4044 2.20632L2.73771 24.6666C2.42729 24.964 2.25305 25.3663 2.25305 25.7857C2.25305 26.205 2.42729 26.6073 2.73771 26.9047L12.171 35.8889C12.3268 36.036 12.5115 36.1524 12.7145 36.2313C12.9176 36.3103 13.135 36.3504 13.3544 36.3492C13.7916 36.3474 14.2106 36.1821 14.521 35.8889L19.2377 31.3968L33.3877 17.9206L38.1044 13.4285C38.4148 13.1311 38.589 12.7288 38.589 12.3095C38.589 11.8901 38.4148 11.4878 38.1044 11.1904ZM32.2044 14.5555L31.021 13.4285C30.7088 13.1329 30.2864 12.967 29.846 12.967C29.4057 12.967 28.9833 13.1329 28.671 13.4285C28.5148 13.5761 28.3908 13.7517 28.3062 13.9451C28.2216 14.1385 28.178 14.346 28.178 14.5555C28.178 14.7651 28.2216 14.9725 28.3062 15.166C28.3908 15.3594 28.5148 15.5349 28.671 15.6825L29.8544 16.8095L27.4877 19.0476L23.9544 15.6825C23.6355 15.4225 23.2254 15.2866 22.806 15.302C22.3865 15.3174 21.9886 15.4831 21.6918 15.7657C21.3949 16.0484 21.2211 16.4274 21.2049 16.8269C21.1887 17.2264 21.3313 17.6169 21.6044 17.9206L25.1377 21.2857L22.771 23.5396L21.6044 22.4127C21.2905 22.1138 20.8649 21.9459 20.421 21.9459C19.9772 21.9459 19.5515 22.1138 19.2377 22.4127C18.9239 22.7116 18.7476 23.1169 18.7476 23.5396C18.7476 23.9624 18.9239 24.3677 19.2377 24.6666L20.421 25.7777L18.071 28.0317L14.521 24.6666C14.2088 24.371 13.7864 24.2051 13.346 24.2051C12.9057 24.2051 12.4833 24.371 12.171 24.6666C11.8606 24.964 11.6864 25.3663 11.6864 25.7857C11.6864 26.205 11.8606 26.6073 12.171 26.9047L15.7044 30.2698L13.3544 32.5238L6.27104 25.7777L27.4877 5.5714L34.571 12.3174L32.2044 14.5555Z" fill="white"/>
</svg>
