<svg width="43" height="40" viewBox="0 0 43 40" fill="none" xmlns="http://www.w3.org/2000/svg">
<path d="M34.7333 25.82L31.5508 23.67C32.0853 21.803 32.0823 19.8338 31.5421 17.9683L34.735 15.845L32.1859 11.655L28.635 13.1983C27.1998 11.825 25.4027 10.843 23.4315 10.355L23.0929 6.66664H17.9947L17.6561 10.355C15.6853 10.8437 13.8888 11.8263 12.4543 13.2L8.90171 11.6566L6.35434 15.8466L9.54733 17.97C9.00684 19.8348 9.0032 21.8033 9.5368 23.67L6.35434 25.82L8.90171 29.99L12.4543 28.445C13.889 29.8181 15.6855 30.8 17.6561 31.2883L17.9947 34.9766H23.0929L23.4315 31.2883C25.4021 30.8 27.1985 29.818 28.6333 28.445L32.1859 29.99L34.735 25.8216L34.7333 25.82ZM24.0614 4.97498C24.2872 4.97475 24.5044 5.05727 24.6678 5.20535C24.8312 5.35343 24.9282 5.55567 24.9386 5.76998L25.2508 9.16164C26.5477 9.63116 27.7576 10.2939 28.835 11.125L32.0807 9.68664C32.2811 9.58866 32.5136 9.56776 32.7298 9.62827C32.9461 9.68878 33.1295 9.82607 33.2421 10.0116L36.7596 15.795C36.8726 15.9804 36.9062 16.2 36.8532 16.4082C36.8003 16.6165 36.665 16.7973 36.4754 16.9133L33.5386 18.8666C33.7631 20.1966 33.7561 21.5216 33.5403 22.7983L36.4754 24.7483C36.6655 24.8643 36.8011 25.0455 36.854 25.2541C36.907 25.4628 36.8732 25.6828 36.7596 25.8683L33.2421 31.63C33.1295 31.8155 32.9461 31.9528 32.7298 32.0134C32.5136 32.0739 32.2811 32.053 32.0807 31.955L28.835 30.5166C27.7789 31.3333 26.5754 32 25.2508 32.4816L24.9386 35.8733C24.9277 36.0873 24.8306 36.2891 24.6672 36.4369C24.5039 36.5846 24.2869 36.6669 24.0614 36.6666H17.0263C16.8007 36.6669 16.5838 36.5846 16.4204 36.4369C16.2571 36.2891 16.1599 36.0873 16.1491 35.8733L15.8368 32.4816C14.5398 32.0115 13.33 31.3482 12.2526 30.5166L9.00698 31.955C8.80655 32.0536 8.57381 32.075 8.35717 32.0148C8.14053 31.9546 7.95667 31.8174 7.84382 31.6316L4.32803 25.8666C4.21501 25.6813 4.18148 25.4617 4.2344 25.2534C4.28732 25.0452 4.42263 24.8643 4.61224 24.7483L7.54733 22.7966C7.32753 21.4944 7.32753 20.1672 7.54733 18.865L4.61399 16.9133C4.42485 16.7974 4.28987 16.6168 4.23696 16.4089C4.18406 16.2011 4.21729 15.9819 4.32978 15.7966L7.84206 10.0116C7.95462 9.82564 8.13836 9.68805 8.35503 9.62751C8.57169 9.56697 8.80458 9.58815 9.00522 9.68664L12.2508 11.125C13.3283 10.2939 14.5382 9.63116 15.835 9.16164L16.1473 5.76998C16.1577 5.55567 16.2547 5.35343 16.4181 5.20535C16.5815 5.05727 16.7987 4.97475 17.0245 4.97498H24.0596H24.0614ZM20.5438 15C22.1723 15 23.7342 15.6146 24.8857 16.7085C26.0372 17.8025 26.6842 19.2862 26.6842 20.8333C26.6842 22.3804 26.0372 23.8641 24.8857 24.9581C23.7342 26.0521 22.1723 26.6666 20.5438 26.6666C18.9153 26.6666 17.3535 26.0521 16.2019 24.9581C15.0504 23.8641 14.4035 22.3804 14.4035 20.8333C14.4035 19.2862 15.0504 17.8025 16.2019 16.7085C17.3535 15.6146 18.9153 15 20.5438 15ZM20.5438 16.6666C19.3806 16.6666 18.265 17.1056 17.4425 17.887C16.6199 18.6684 16.1579 19.7282 16.1579 20.8333C16.1579 21.9384 16.6199 22.9982 17.4425 23.7796C18.265 24.561 19.3806 25 20.5438 25C21.707 25 22.8226 24.561 23.6452 23.7796C24.4677 22.9982 24.9298 21.9384 24.9298 20.8333C24.9298 19.7282 24.4677 18.6684 23.6452 17.887C22.8226 17.1056 21.707 16.6666 20.5438 16.6666Z" fill="#747474"/>
</svg>
