<svg width="30" height="29" viewBox="0 0 30 29" fill="none" xmlns="http://www.w3.org/2000/svg">
<path d="M26.285 19.3263H19.7656C19.384 19.3263 19.0179 19.4711 18.748 19.729C18.4781 19.9868 18.3265 20.3366 18.3265 20.7013C18.3265 21.0659 18.4781 21.4157 18.748 21.6735C19.0179 21.9314 19.384 22.0763 19.7656 22.0763H23.2196C21.6321 23.6613 19.5849 24.7566 17.3409 25.2214C15.0969 25.6863 12.7587 25.4995 10.6268 24.685C8.49476 23.8705 6.66636 22.4655 5.37649 20.6506C4.08661 18.8357 3.39419 16.6938 3.38818 14.5C3.38818 14.1353 3.23655 13.7856 2.96666 13.5277C2.69677 13.2699 2.33072 13.125 1.94903 13.125C1.56735 13.125 1.2013 13.2699 0.931403 13.5277C0.661511 13.7856 0.509888 14.1353 0.509888 14.5C0.517496 17.1851 1.34779 19.8093 2.8983 22.0488C4.44881 24.2883 6.65167 26.045 9.23505 27.1022C11.8184 28.1594 14.6692 28.4707 17.4357 27.9979C20.2021 27.525 22.7631 26.2886 24.8026 24.4413V26.875C24.8026 27.2397 24.9543 27.5894 25.2242 27.8473C25.4941 28.1051 25.8601 28.25 26.2418 28.25C26.6235 28.25 26.9895 28.1051 27.2594 27.8473C27.5293 27.5894 27.6809 27.2397 27.6809 26.875V20.6875C27.6774 20.3323 27.53 19.9921 27.2698 19.7383C27.0096 19.4846 26.6566 19.3369 26.285 19.3263ZM14.9013 0.75C11.2119 0.760054 7.66746 2.12351 5.00002 4.55875V2.125C5.00002 1.76033 4.84839 1.41059 4.5785 1.15273C4.30861 0.894866 3.94256 0.75 3.56087 0.75C3.17919 0.75 2.81314 0.894866 2.54325 1.15273C2.27335 1.41059 2.12173 1.76033 2.12173 2.125V8.3125C2.12173 8.67717 2.27335 9.02691 2.54325 9.28477C2.81314 9.54264 3.17919 9.6875 3.56087 9.6875H10.037C10.4187 9.6875 10.7848 9.54264 11.0547 9.28477C11.3245 9.02691 11.4762 8.67717 11.4762 8.3125C11.4762 7.94783 11.3245 7.59809 11.0547 7.34023C10.7848 7.08237 10.4187 6.9375 10.037 6.9375H6.58308C8.16968 5.35332 10.2156 4.25831 12.4582 3.79302C14.7009 3.32774 17.0379 3.5134 19.1693 4.32619C21.3007 5.13897 23.1292 6.54179 24.4202 8.35458C25.7111 10.1674 26.4056 12.3074 26.4145 14.5C26.4145 14.8647 26.5661 15.2144 26.836 15.4723C27.1059 15.7301 27.4719 15.875 27.8536 15.875C28.2353 15.875 28.6014 15.7301 28.8713 15.4723C29.1412 15.2144 29.2928 14.8647 29.2928 14.5C29.2928 12.6943 28.9205 10.9063 28.1973 9.2381C27.4741 7.56988 26.414 6.05409 25.0776 4.77728C23.7412 3.50048 22.1547 2.48766 20.4087 1.79666C18.6626 1.10565 16.7912 0.75 14.9013 0.75Z" fill="white"/>
</svg>
