<svg width="43" height="40" viewBox="0 0 43 40" fill="none" xmlns="http://www.w3.org/2000/svg">
<path d="M27.9298 21.1833C29.6498 19.8977 30.9052 18.1349 31.5214 16.1399C32.1377 14.1449 32.084 12.0171 31.368 10.0524C30.652 8.08777 29.3092 6.38397 27.5264 5.17808C25.7436 3.97218 23.6095 3.32416 21.421 3.32416C19.2325 3.32416 17.0984 3.97218 15.3156 5.17808C13.5328 6.38397 12.19 8.08777 11.474 10.0524C10.758 12.0171 10.7044 14.1449 11.3206 16.1399C11.9368 18.1349 13.1923 19.8977 14.9122 21.1833C11.965 22.3051 9.39345 24.1656 7.4717 26.5665C5.54996 28.9675 4.35007 31.8188 3.99996 34.8166C3.97462 35.0355 3.9949 35.257 4.05966 35.4684C4.12441 35.6798 4.23236 35.8771 4.37735 36.0489C4.67017 36.3958 5.09607 36.618 5.56137 36.6666C6.02666 36.7153 6.49323 36.5863 6.85843 36.3081C7.22363 36.0299 7.45755 35.6253 7.50873 35.1833C7.89397 31.9253 9.52924 28.9163 12.1021 26.7313C14.675 24.5463 18.005 23.3384 21.4561 23.3384C24.9072 23.3384 28.2372 24.5463 30.8101 26.7313C33.383 28.9163 35.0182 31.9253 35.4035 35.1833C35.4512 35.5928 35.6569 35.9711 35.9809 36.245C36.3048 36.5189 36.7241 36.6691 37.1579 36.6666H37.3508C37.8107 36.6164 38.2311 36.3955 38.5202 36.0521C38.8094 35.7087 38.944 35.2706 38.8947 34.8333C38.5429 31.827 37.3366 28.9683 35.405 26.5637C33.4733 24.159 30.8893 22.2991 27.9298 21.1833ZM21.421 20C20.0331 20 18.6763 19.609 17.5223 18.8764C16.3682 18.1439 15.4688 17.1027 14.9376 15.8845C14.4065 14.6664 14.2675 13.3259 14.5383 12.0327C14.8091 10.7395 15.4774 9.55162 16.4589 8.61927C17.4403 7.68692 18.6907 7.05198 20.052 6.79475C21.4132 6.53751 22.8242 6.66954 24.1065 7.17412C25.3888 7.6787 26.4848 8.53319 27.2559 9.62952C28.027 10.7258 28.4386 12.0148 28.4386 13.3333C28.4386 15.1014 27.6992 16.7971 26.3832 18.0474C25.0671 19.2976 23.2822 20 21.421 20Z" fill="#747474"/>
</svg>
